HIERARCHY
ROOT Hips
{
  OFFSET 5.84602e-005 68.8428 3.50346
  CHANNELS 6 Xposition Yposition Zposition Zrotation Xrotation Yrotation
  JOINT Spine
  {
    OFFSET 0 8.597 -4.6522
    CHANNELS 3 Zrotation Xrotation Yrotation
    JOINT Spine1
    {
      OFFSET 0 7.8454 0.4098
      CHANNELS 3 Zrotation Xrotation Yrotation
      JOINT Spine2
      {
        OFFSET 0 9.7078 -2.1609
        CHANNELS 3 Zrotation Xrotation Yrotation
        JOINT Neck
        {
          OFFSET 0 21.8761 -0.4549
          CHANNELS 3 Zrotation Xrotation Yrotation
          JOINT Head
          {
            OFFSET 0 12.3537 3.3602
            CHANNELS 3 Zrotation Xrotation Yrotation
            End Site
            {
              OFFSET 0.0001 18.9506 0.5657
            }
          }
        }
        JOINT LeftShoulder
        {
          OFFSET 2.2086 21.1115 7.2329
          CHANNELS 3 Zrotation Xrotation Yrotation
          JOINT LeftArm
          {
            OFFSET 13.1193 3.0282 -4.8998
            CHANNELS 3 Zrotation Xrotation Yrotation
            JOINT LeftForeArm
            {
              OFFSET 27.4081 -0.0973053 -0.2375
              CHANNELS 3 Zrotation Xrotation Yrotation
              JOINT LeftHand
              {
                OFFSET 22.8641 0.0662994 -0.1369
                CHANNELS 3 Zrotation Xrotation Yrotation
                JOINT LeftHandIndex1
                {
                  OFFSET 8.8614 0.775009 2.4612
                  CHANNELS 3 Zrotation Xrotation Yrotation
                  JOINT LeftHandIndex2
                  {
                    OFFSET 3.3146 -0.808304 0.5841
                    CHANNELS 3 Zrotation Xrotation Yrotation
                    JOINT LeftHandIndex3
                    {
                      OFFSET 2.2628 -0.552002 0.3989
                      CHANNELS 3 Zrotation Xrotation Yrotation
                      End Site
                      {
                        OFFSET 1.6102 -0.4807 0.2612
                      }
                    }
                  }
                }
                JOINT LeftHandMiddle1
                {
                  OFFSET 8.9937 0.895004 0.2143
                  CHANNELS 3 Zrotation Xrotation Yrotation
                  JOINT LeftHandMiddle2
                  {
                    OFFSET 4.0984 0.0113983 -0.0242
                    CHANNELS 3 Zrotation Xrotation Yrotation
                    JOINT LeftHandMiddle3
                    {
                      OFFSET 2.2716 0.00689697 -0.0138001
                      CHANNELS 3 Zrotation Xrotation Yrotation
                      End Site
                      {
                        OFFSET 2.0404 -0.1441 0.0027
                      }
                    }
                  }
                }
                JOINT LeftHandRing1
                {
                  OFFSET 8.5234 0.597198 -2.0164
                  CHANNELS 3 Zrotation Xrotation Yrotation
                  JOINT LeftHandRing2
                  {
                    OFFSET 3.7188 -0.188293 -0.2328
                    CHANNELS 3 Zrotation Xrotation Yrotation
                    JOINT LeftHandRing3
                    {
                      OFFSET 2.1191 -0.106598 -0.1332
                      CHANNELS 3 Zrotation Xrotation Yrotation
                      End Site
                      {
                        OFFSET 1.8737 -0.2304 -0.0886
                      }
                    }
                  }
                }
                JOINT LeftHandPinky1
                {
                  OFFSET 7.9094 -0.601089 -3.4825
                  CHANNELS 3 Zrotation Xrotation Yrotation
                  JOINT LeftHandPinky2
                  {
                    OFFSET 2.2874 -0.477005 -0.6314
                    CHANNELS 3 Zrotation Xrotation Yrotation
                    JOINT LeftHandPinky3
                    {
                      OFFSET 1.6774 -0.349396 -0.4633
                      CHANNELS 3 Zrotation Xrotation Yrotation
                      End Site
                      {
                        OFFSET 1.4888 -0.4091 -0.3416
                      }
                    }
                  }
                }
                JOINT LeftHandThumb1
                {
                  OFFSET 1.833 -1.3875 1.3896
                  CHANNELS 3 Zrotation Xrotation Yrotation
                  JOINT LeftHandThumb2
                  {
                    OFFSET 3.4129 -1.121 2.5732
                    CHANNELS 3 Zrotation Xrotation Yrotation
                    JOINT LeftHandThumb3
                    {
                      OFFSET 2.2474 -0.804199 1.6192
                      CHANNELS 3 Zrotation Xrotation Yrotation
                      End Site
                      {
                        OFFSET 1.6527 -0.5689 1.1317
                      }
                    }
                  }
                }
              }
            }
          }
        }
        JOINT RightShoulder
        {
          OFFSET -2.2086 21.1115 7.2329
          CHANNELS 3 Zrotation Xrotation Yrotation
          JOINT RightArm
          {
            OFFSET -13.1216 3.0287 -4.9007
            CHANNELS 3 Zrotation Xrotation Yrotation
            JOINT RightForeArm
            {
              OFFSET -27.4081 -0.0973053 -0.2375
              CHANNELS 3 Zrotation Xrotation Yrotation
              JOINT RightHand
              {
                OFFSET -22.8641 0.0664063 -0.1369
                CHANNELS 3 Zrotation Xrotation Yrotation
                JOINT RightHandIndex1
                {
                  OFFSET -8.8614 0.774994 2.4612
                  CHANNELS 3 Zrotation Xrotation Yrotation
                  JOINT RightHandIndex2
                  {
                    OFFSET -3.3146 -0.808304 0.5841
                    CHANNELS 3 Zrotation Xrotation Yrotation
                    JOINT RightHandIndex3
                    {
                      OFFSET -2.2628 -0.552002 0.3989
                      CHANNELS 3 Zrotation Xrotation Yrotation
                      End Site
                      {
                        OFFSET -1.6102 -0.4807 0.2612
                      }
                    }
                  }
                }
                JOINT RightHandMiddle1
                {
                  OFFSET -8.9937 0.894989 0.2143
                  CHANNELS 3 Zrotation Xrotation Yrotation
                  JOINT RightHandMiddle2
                  {
                    OFFSET -4.0984 0.0113983 -0.0242
                    CHANNELS 3 Zrotation Xrotation Yrotation
                    JOINT RightHandMiddle3
                    {
                      OFFSET -2.2716 0.00691223 -0.0138001
                      CHANNELS 3 Zrotation Xrotation Yrotation
                      End Site
                      {
                        OFFSET -2.0404 -0.1441 0.0027
                      }
                    }
                  }
                }
                JOINT RightHandRing1
                {
                  OFFSET -8.5234 0.597198 -2.0164
                  CHANNELS 3 Zrotation Xrotation Yrotation
                  JOINT RightHandRing2
                  {
                    OFFSET -3.7188 -0.188309 -0.2328
                    CHANNELS 3 Zrotation Xrotation Yrotation
                    JOINT RightHandRing3
                    {
                      OFFSET -2.1191 -0.106598 -0.1332
                      CHANNELS 3 Zrotation Xrotation Yrotation
                      End Site
                      {
                        OFFSET -1.8737 -0.2304 -0.0886
                      }
                    }
                  }
                }
                JOINT RightHandPinky1
                {
                  OFFSET -7.9094 -0.601105 -3.4825
                  CHANNELS 3 Zrotation Xrotation Yrotation
                  JOINT RightHandPinky2
                  {
                    OFFSET -2.2874 -0.477005 -0.6314
                    CHANNELS 3 Zrotation Xrotation Yrotation
                    JOINT RightHandPinky3
                    {
                      OFFSET -1.6774 -0.349396 -0.4633
                      CHANNELS 3 Zrotation Xrotation Yrotation
                      End Site
                      {
                        OFFSET -1.4888 -0.4091 -0.3416
                      }
                    }
                  }
                }
                JOINT RightHandThumb1
                {
                  OFFSET -1.833 -1.38751 1.3896
                  CHANNELS 3 Zrotation Xrotation Yrotation
                  JOINT RightHandThumb2
                  {
                    OFFSET -3.41299 -1.12099 2.5732
                    CHANNELS 3 Zrotation Xrotation Yrotation
                    JOINT RightHandThumb3
                    {
                      OFFSET -2.24741 -0.804108 1.6192
                      CHANNELS 3 Zrotation Xrotation Yrotation
                      End Site
                      {
                        OFFSET -1.6527 -0.5689 1.1317
                      }
                    }
                  }
                }
              }
            }
          }
        }
      }
    }
  }
  JOINT RightUpLeg
  {
    OFFSET -9.1966 3.8861 -0.7581
    CHANNELS 3 Zrotation Xrotation Yrotation
    JOINT RightLeg
    {
      OFFSET -0.7359 -41.0265 0
      CHANNELS 3 Zrotation Xrotation Yrotation
      JOINT RightFoot
      {
        OFFSET 0 -40.2855 0
        CHANNELS 3 Zrotation Xrotation Yrotation
        JOINT RightToeBase
        {
          OFFSET 0 -5.6122 11.7359
          CHANNELS 3 Zrotation Xrotation Yrotation
          End Site
          {
            OFFSET 0 0 7.8731
          }
        }
      }
    }
  }
  JOINT LeftUpLeg
  {
    OFFSET 9.1965 3.8864 -0.7581
    CHANNELS 3 Zrotation Xrotation Yrotation
    JOINT LeftLeg
    {
      OFFSET 0.7359 -41.0268 0
      CHANNELS 3 Zrotation Xrotation Yrotation
      JOINT LeftFoot
      {
        OFFSET 0 -40.2855 0
        CHANNELS 3 Zrotation Xrotation Yrotation
        JOINT LeftToeBase
        {
          OFFSET 0 -5.6122 11.7359
          CHANNELS 3 Zrotation Xrotation Yrotation
          End Site
          {
            OFFSET 0 0 7.8731
          }
        }
      }
    }
  }
}
MOTION
Frames:	6
Frame Time:	0.0333333
5.84602e-005 68.8428 3.50346 0 0 -0 0 0 -0 0 0 -0 0 0 -0 0 0 -0 0 0 -0 0 0 -0 0 0 -0 0 0 -0 0 0 -0 0 0 -0 0 0 -0 0 0 -0 0 0 -0 -0.0146107 -8.87603e-005 -2.63497e-007 2.99804e-018 -2.42657e-020 -1.42182e-022 0 0 -0 -0.0187562 -0.001176 5.858e-005 5.06224e-018 3.88251e-019 1.21329e-020 0 0 -0 -0.012269 -0.00324817 0.000675346 -1.74678e-018 3.88251e-019 -0 0 0 -0 0 0 -0 0 0 -0 0 0 -0 0 0 -0 0 0 -0 0 0 -0 0 0 -0 0 0 -0 0 0 -0 0 0 -0 0.0149955 -9.10982e-005 2.64101e-007 -9.69331e-018 1.21329e-020 -4.7394e-023 0 0 -0 0.0189956 -0.00119102 -5.96516e-005 -5.41541e-019 0 2.42657e-020 0 0 -0 0.0122698 -0.00324857 -0.000673756 -2.00796e-019 0 -1.94126e-019 0 0 -0 0 0 -0 0 0 -0 3.39842 1.33031 -0.0637918 -5.65207e-008 0.834868 -0.000436188 -3.39935 -2.16518 -0.0642563 -8.89002e-024 -1.18485e-023 -1.48106e-024 -3.39844 1.35642 0.0640283 -3.18788e-007 0.782166 -0.000588827 3.39931 -2.13858 0.0634662 1.1399e-023 0 -0 
3.41813 23.6312 -35.8654 133.339 65.9141 -0.0113245 -0.0106888 -0.320905 -0.207388 -0.0225665 -0.641741 -0.414841 -0.0225673 -0.64175 -0.414831 0.000477532 32.5914 -0.000314578 -1.41465e-005 -29.4009 -1.28527e-005 -14.1058 2.54775 13.2095 -1.01268 3.83543 -58.1273 -10.1343 -8.12745 -31.5002 -28.0643 -23.8246 -29.8504 7.15625e-015 9.54166e-015 -4.77083e-015 -3.97569e-015 -3.18055e-015 -3.18055e-015 -2.38542e-015 0 -3.18055e-015 7.15625e-015 9.54166e-015 -4.77083e-015 -0.0146394 -8.8557e-005 -1.17299e-006 5.56597e-015 3.18055e-015 1.59028e-015 7.15625e-015 9.54166e-015 -4.77083e-015 -0.0187161 -0.00117953 6.09906e-005 0 0 -1.59028e-015 7.15625e-015 9.54166e-015 -4.77083e-015 -0.0121548 -0.00322042 0.000668647 0 0 -0 7.15625e-015 9.54166e-015 -4.77083e-015 -3.97569e-015 -3.18055e-015 -3.18055e-015 -2.38542e-015 0 -3.18055e-015 14.0659 2.24378 -12.9935 0.972421 3.78702 57.9903 10.0888 -8.20027 31.4268 28.4808 -23.4613 29.4967 -1.08947e-006 1.94751e-007 3.62329e-006 -2.49826e-006 7.81711e-007 -3.39665e-007 -1.08947e-006 1.94751e-007 3.62329e-006 -1.08947e-006 1.94751e-007 3.62329e-006 0.0149907 -9.33408e-005 2.44285e-006 -1.08953e-006 1.95225e-007 3.62326e-006 -1.08947e-006 1.94751e-007 3.62329e-006 0.0190039 -0.00119075 -5.73155e-005 -1.08951e-006 1.95356e-007 3.62327e-006 -1.08947e-006 1.94751e-007 3.62329e-006 0.0122861 -0.00325076 -0.000675242 -1.08942e-006 1.95146e-007 3.6233e-006 -1.08947e-006 1.94751e-007 3.62329e-006 -2.49826e-006 7.81711e-007 -3.39665e-007 -1.08947e-006 1.94751e-007 3.62329e-006 -30.6184 -19.9057 -23.4589 -10.4019 52.3838 13.5917 -17.154 32.686 19.8793 6.36111e-015 6.36111e-015 -4.77083e-015 30.2349 -20.3838 23.4912 10.0024 51.3919 -13.1188 17.7632 34.0642 -20.2372 -2.0989e-007 -4.40631e-008 6.93132e-007 
-1.84348 -2.46373 -52.3872 13.2582 84.4211 -179.931 -0.0264854 -0.403263 -0.300315 -0.055086 -0.806409 -0.600866 -0.055091 -0.806413 -0.60086 -0.00020437 47.258 0.000228109 9.44686e-007 -43.7675 4.54249e-008 -20.7263 3.36759 19.2797 0.0637055 1.09314 -84.0861 -17.4827 -9.57957 -46.3519 -48.8464 -29.3872 -46.4643 5.01931e-015 -2.38542e-015 -0 4.96962e-015 0 -3.18055e-015 -1.59028e-015 -1.19271e-015 -1.59028e-015 5.01931e-015 -2.38542e-015 -0 -0.0146046 -8.86104e-005 1.0865e-006 1.54555e-014 -7.95139e-016 -1.59028e-015 5.01931e-015 -2.38542e-015 -0 -0.0187943 -0.00117783 6.09068e-005 -1.68967e-015 1.19271e-015 3.18055e-015 5.01931e-015 -2.38542e-015 -0 -0.0122406 -0.0032407 0.000674637 -5.61567e-015 2.38542e-015 -1.59028e-015 5.01931e-015 -2.38542e-015 -0 4.96962e-015 0 -3.18055e-015 -1.59028e-015 -1.19271e-015 -1.59028e-015 20.6193 2.94728 -18.9698 -0.106433 1.10935 83.8962 17.4344 -9.67935 46.2435 49.234 -29.0584 45.8572 2.73329e-015 -3.97569e-016 -1.59028e-015 4.17448e-015 -3.97569e-016 -1.59028e-015 4.17448e-015 3.97569e-016 -1.59028e-015 2.73329e-015 -3.97569e-016 -1.59028e-015 0.0150457 -9.15916e-005 5.73358e-007 -4.96962e-017 -7.95139e-016 -1.59028e-015 2.73329e-015 -3.97569e-016 -1.59028e-015 0.0189599 -0.00118905 -5.97487e-005 5.86415e-015 0 -1.59028e-015 2.73329e-015 -3.97569e-016 -1.59028e-015 0.0122846 -0.00325166 -0.000677543 -1.11275e-007 -4.99381e-008 -5.42973e-010 2.73329e-015 -3.97569e-016 -1.59028e-015 4.17448e-015 -3.97569e-016 -1.59028e-015 4.17448e-015 3.97569e-016 -1.59028e-015 -51.0189 -28.3148 -36.649 -42.8503 71.6382 43.8727 -35.5464 45.71 35.6043 -3.85176e-007 -1.84871e-006 -2.76804e-007 50.8593 -27.742 36.4861 42.3159 71.5152 -43.3877 35.2905 45.3878 -35.3662 -8.18e-007 1.93095e-007 -1.20722e-007 
-1.08088 3.89549 -48.846 -179.651 88.9936 -0.355032 -0.0232927 -0.247283 -0.279678 -0.0477928 -0.494454 -0.559464 -0.0477928 -0.494442 -0.559464 -0.000130542 43.9986 0.000213894 3.13299e-007 -43.1028 5.72943e-007 -19.0121 2.7086 18.1675 -0.090898 1.98929 -78.3606 -15.9644 -9.23066 -43.8252 -43.4759 -28.9309 -42.5162 -2.98177e-015 3.18055e-015 -2.38542e-015 -5.96354e-015 -1.59028e-015 -7.95139e-016 -8.74653e-015 1.59028e-015 -2.38542e-015 -2.98177e-015 3.18055e-015 -2.38542e-015 -0.0145753 -8.8287e-005 -2.03187e-007 -1.63003e-014 1.59028e-015 7.95139e-016 -2.98177e-015 3.18055e-015 -2.38542e-015 -0.0187419 -0.00117516 5.82475e-005 -5.56597e-015 0 -2.38542e-015 -2.98177e-015 3.18055e-015 -2.38542e-015 -0.0122467 -0.00324065 0.000673237 1.98785e-015 1.59028e-015 2.38542e-015 -2.98177e-015 3.18055e-015 -2.38542e-015 -5.96354e-015 -1.59028e-015 -7.95139e-016 -8.74653e-015 1.59028e-015 -2.38542e-015 18.9253 2.32221 -17.8967 0.0514373 1.9861 78.1808 15.9107 -9.32972 43.7062 43.8867 -28.5756 42.0092 3.27371e-006 7.31251e-008 -3.29651e-008 -3.27371e-006 -7.31251e-008 3.29651e-008 3.27371e-006 7.31251e-008 -3.29651e-008 3.27371e-006 7.31251e-008 -3.29651e-008 0.0150156 -9.15757e-005 1.02433e-006 3.27385e-006 7.31199e-008 -3.29773e-008 3.27371e-006 7.31251e-008 -3.29651e-008 0.0189459 -0.00118902 -6.00128e-005 3.27389e-006 7.31104e-008 -3.30117e-008 3.27371e-006 7.31251e-008 -3.29651e-008 0.0122178 -0.00323562 -0.000674008 4.25775e-006 1.97996e-007 9.07234e-008 3.27371e-006 7.31251e-008 -3.29651e-008 -3.27371e-006 -7.31251e-008 3.29651e-008 3.27371e-006 7.31251e-008 -3.29651e-008 -45.9518 -26.5782 -33.5193 -31.0825 68.2575 32.6458 -30.6604 42.9999 31.334 1.74173e-008 -2.85257e-008 -1.66268e-006 45.9453 -26.5816 33.4841 31.0011 68.2755 -32.5851 30.6328 43.035 -31.3007 2.27111e-014 -1.17283e-014 -3.18055e-015 
-1.08088 3.89546 -48.8461 -179.651 88.9939 -0.355139 -0.0239665 -0.134507 -0.279554 -0.0485894 -0.268908 -0.559166 -0.0485892 -0.268916 -0.559167 0.000111669 43.9983 -0.000176273 1.60952e-007 -45.1852 2.67695e-007 -18.8249 2.31238 18.3632 -0.0909142 1.98929 -78.3605 -16.1379 -9.06763 -44.4629 -43.1573 -29.202 -42.4201 -1.19271e-015 -1.59028e-015 -3.18055e-015 -4.37326e-015 -1.59028e-015 -2.38542e-015 -8.34896e-015 1.59028e-015 -0 -1.19271e-015 -1.59028e-015 -3.18055e-015 -0.014637 -8.89337e-005 -6.33152e-007 -2.38542e-015 -3.18055e-015 7.95139e-016 -1.19271e-015 -1.59028e-015 -3.18055e-015 -0.018773 -0.00117792 5.95993e-005 1.39149e-015 -1.59028e-015 1.59028e-015 -1.19271e-015 -1.59028e-015 -3.18055e-015 -0.0123155 -0.00326009 0.000678161 -2.18663e-015 6.36111e-015 1.59028e-015 -1.19271e-015 -1.59028e-015 -3.18055e-015 -4.37326e-015 -1.59028e-015 -2.38542e-015 -8.34896e-015 1.59028e-015 -0 18.7402 1.93345 -18.1076 0.051416 1.98611 78.1808 16.0804 -9.17058 44.329 43.5777 -28.8443 41.9486 -4.17448e-015 0 7.95139e-016 1.78906e-015 0 2.38542e-015 1.19271e-015 0 1.59028e-015 -4.17448e-015 0 7.95139e-016 0.0149821 -8.97396e-005 1.2419e-006 1.17283e-014 1.59028e-015 2.38542e-015 -4.17448e-015 0 7.95139e-016 0.0189674 -0.00118933 -5.8951e-005 -9.92496e-007 -1.32567e-007 -1.24873e-007 -4.17448e-015 0 7.95139e-016 0.0123031 -0.00325603 -0.000679274 -1.07344e-014 4.77083e-015 -3.18055e-015 -4.17448e-015 0 7.95139e-016 1.78906e-015 0 2.38542e-015 1.19271e-015 0 1.59028e-015 -45.9518 -26.5782 -33.5193 -31.0826 68.2575 32.6459 -30.6603 42.9999 31.334 2.84e-008 -3.4258e-008 1.93501e-007 45.9452 -26.5815 33.484 31.0011 68.2754 -32.585 30.6328 43.035 -31.3007 9.93923e-017 -2.98177e-016 -6.36111e-015 
-1.08088 3.89549 -48.846 -179.651 88.9936 -0.355027 -0.0246583 -0.021771 -0.279628 -0.0494227 -0.0434497 -0.559265 -0.0494226 -0.0434178 -0.559264 -0.000515014 43.9985 0.00082292 -8.91971e-008 -47.2776 -3.17528e-007 -18.6363 1.9167 18.5612 -0.0909008 1.98929 -78.3605 -16.3096 -8.9026 -45.1001 -42.8373 -29.4727 -42.3221 4.17448e-015 0 -1.59028e-015 4.96962e-015 1.59028e-015 -7.95139e-016 2.5842e-015 1.59028e-015 -3.18055e-015 4.17448e-015 0 -1.59028e-015 -0.0146329 -8.74188e-005 -6.35066e-007 -7.35503e-015 1.59028e-015 -2.38542e-015 4.17448e-015 0 -1.59028e-015 -0.0186992 -0.00117226 5.89768e-005 2.38542e-015 1.59028e-015 7.95139e-016 4.17448e-015 0 -1.59028e-015 -0.012232 -0.00323848 0.000676758 -6.8477e-007 1.6905e-007 -1.67095e-007 4.17448e-015 0 -1.59028e-015 4.96962e-015 1.59028e-015 -7.95139e-016 2.5842e-015 1.59028e-015 -3.18055e-015 18.5538 1.54592 -18.319 0.0514229 1.98609 78.1808 16.2483 -9.00954 44.9513 43.2675 -29.1128 41.8861 2.38542e-015 -3.18055e-015 -1.59028e-015 3.27228e-006 7.27756e-008 -3.67847e-008 -8.15017e-015 -3.18055e-015 -0 2.38542e-015 -3.18055e-015 -1.59028e-015 0.015017 -9.13378e-005 8.52542e-007 6.95746e-015 -4.77083e-015 -7.95139e-016 2.38542e-015 -3.18055e-015 -1.59028e-015 0.0189737 -0.00119034 -5.87731e-005 -1.76556e-031 -6.36111e-015 -1.59028e-015 2.38542e-015 -3.18055e-015 -1.59028e-015 0.0122567 -0.0032429 -0.000675716 -5.1684e-015 -1.59028e-015 -0 2.38542e-015 -3.18055e-015 -1.59028e-015 3.27228e-006 7.27756e-008 -3.67847e-008 -8.15017e-015 -3.18055e-015 -0 -45.9518 -26.5782 -33.5193 -31.0827 68.2576 32.6459 -30.6603 42.9999 31.334 -2.98177e-016 9.93923e-017 -3.18055e-015 45.9452 -26.5816 33.484 31.0011 68.2754 -32.585 30.6328 43.0351 -31.3007 2.28032e-008 7.61033e-009 1.93414e-007 
